<svg xmlns="http://www.w3.org/2000/svg" viewBox="0 0 720 510" font-family="-apple-system, Segoe UI, Roboto, Helvetica, Arial, sans-serif">
  <title>dshm-alloc overall architecture</title>
  <desc>Two-layer (L1/L2) distributed chunk allocator over a 128TB shared GVA pool. The core mechanism is the L1 CAS bitmap; the local cache is only an optimization shortcut.</desc>

  <defs>
    <marker id="arrI" viewBox="0 0 10 10" refX="9" refY="5" markerWidth="7" markerHeight="7" orient="auto-start-reverse">
      <path d="M0,0 L10,5 L0,10 z" fill="#4f46e5"/>
    </marker>
    <marker id="arrG" viewBox="0 0 10 10" refX="9" refY="5" markerWidth="7" markerHeight="7" orient="auto-start-reverse">
      <path d="M0,0 L10,5 L0,10 z" fill="#94a3b8"/>
    </marker>
    <style>
      .layer  { font-size:14px; font-weight:700; fill:#0f172a; }
      .core   { font-size:16px; font-weight:800; fill:#312e81; }
      .sub    { font-size:11px; fill:#64748b; }
      .hint   { font-size:11px; fill:#4f46e5; font-style:italic; }
      .box    { fill:#ffffff; stroke:#94a3b8; stroke-width:1.5; }
      .frame  { fill:#f8fafc; stroke:#94a3b8; stroke-width:1.5; }
      .corebox{ fill:#eef2ff; stroke:#4f46e5; stroke-width:2.5; }
      .cache  { fill:#ffffff; stroke:#cbd5e1; stroke-width:1.4; stroke-dasharray:6 4; }
      .main   { stroke:#4f46e5; stroke-width:2.5; fill:none; }
      .side   { stroke:#94a3b8; stroke-width:1.4; fill:none; }
      .ghost  { stroke:#cbd5e1; stroke-width:1.2; fill:none; stroke-dasharray:5 4; }
    </style>
  </defs>

  <!-- ===== Application ===== -->
  <rect x="250" y="24" width="220" height="48" rx="6" class="box"/>
  <text x="360" y="46" class="layer" text-anchor="middle">Application</text>
  <text x="360" y="63" class="sub" text-anchor="middle">shared_malloc / shared_free</text>

  <!-- main flow: App -> L2 -->
  <line x1="360" y1="72" x2="360" y2="98" class="main" marker-end="url(#arrI)"/>

  <!-- ===== L2 ===== -->
  <rect x="170" y="98" width="380" height="56" rx="6" class="box"/>
  <text x="360" y="123" class="layer" text-anchor="middle">L2 · jemalloc extent_hooks + feeder</text>
  <text x="360" y="142" class="sub" text-anchor="middle">extent_alloc → L1      extent_dalloc → L1_free</text>

  <!-- main flow: L2 -> L1 -->
  <line x1="360" y1="154" x2="360" y2="182" class="main" marker-end="url(#arrI)"/>

  <!-- ===== L1 frame ===== -->
  <rect x="50" y="182" width="620" height="212" rx="8" class="frame"/>
  <text x="70" y="204" class="layer">L1 · distributed chunk allocator</text>

  <!-- entry fork point at (360, 214) -->
  <!-- hit shortcut (ghosted) into cache -->
  <path d="M360,214 Q360,232 250,238 L185,238" class="ghost" marker-end="url(#arrG)"/>
  <text x="258" y="232" class="sub">hit</text>

  <!-- cache box (de-emphasized) -->
  <rect x="70" y="248" width="180" height="120" rx="6" class="cache"/>
  <text x="160" y="278" class="sub" text-anchor="middle">fast path</text>
  <text x="160" y="302" class="layer" text-anchor="middle">local cache</text>
  <text x="160" y="326" class="sub" text-anchor="middle">4 × 1GB · LIFO</text>
  <text x="160" y="346" class="sub" text-anchor="middle">(optimization only)</text>

  <!-- miss -> CAS (main flow continues) -->
  <line x1="360" y1="214" x2="360" y2="238" class="main" marker-end="url(#arrI)"/>
  <text x="368" y="232" class="hint">miss</text>

  <!-- ===== CORE: CAS bitmap (focal point) ===== -->
  <rect x="250" y="238" width="220" height="138" rx="6" class="corebox"/>
  <text x="360" y="266" class="sub" text-anchor="middle">slow path</text>
  <text x="360" y="296" class="core" text-anchor="middle">CAS bitmap</text>
  <text x="360" y="322" class="sub" text-anchor="middle">131072 entries · 8-byte {node,pid}</text>
  <text x="360" y="350" class="hint" text-anchor="middle">decentralized · no daemon</text>

  <!-- main flow: CAS -> pool -->
  <line x1="360" y1="376" x2="360" y2="408" class="main" marker-end="url(#arrI)"/>
  <text x="368" y="398" class="hint">CAS</text>

  <!-- ===== Shared pool ===== -->
  <rect x="50" y="408" width="620" height="82" rx="8" class="box" fill="#f8fafc"/>
  <text x="70" y="432" class="layer">Shared GVA Pool · 128TB</text>
  <rect x="70" y="446" width="200" height="32" rx="4" class="box"/>
  <text x="170" y="466" class="sub" text-anchor="middle">chunk 0 · metadata</text>
  <rect x="290" y="446" width="360" height="32" rx="4" class="box"/>
  <text x="470" y="466" class="sub" text-anchor="middle">chunk 1 .. 131071 · allocatable 1GB</text>
</svg>
